<?xml version="1.0" encoding="UTF-8" standalone="no"?>
<!DOCTYPE svg PUBLIC "-//W3C//DTD SVG 1.1//EN" "http://www.w3.org/Graphics/SVG/1.1/DTD/svg11.dtd">
<svg width="100%" height="100%" viewBox="0 0 1024 1024" version="1.1" xmlns="http://www.w3.org/2000/svg" xmlns:xlink="http://www.w3.org/1999/xlink" xml:space="preserve" xmlns:serif="http://www.serif.com/" style="fill-rule:evenodd;clip-rule:evenodd;stroke-linejoin:round;stroke-miterlimit:2;">
    <g transform="matrix(1.46022,0,0,1.25,-352.905,-224)">
        <path fill="white" d="M480,642.799C490.649,645.163 501.638,646.4 512.872,646.4C524.106,646.4 535.095,645.163 545.744,642.799L545.744,889.6C545.744,910.794 531.014,928 512.872,928C494.729,928 480,910.794 480,889.6L480,642.799ZM512.872,262.4C597.537,262.4 666.274,342.697 666.274,441.6C666.274,540.503 597.537,620.8 512.872,620.8C428.207,620.8 359.47,540.503 359.47,441.6C359.47,342.697 428.207,262.4 512.872,262.4ZM756.671,588.129C847.383,588.129 921.03,674.311 921.03,780.464C921.03,886.617 847.383,972.8 756.671,972.8C665.959,972.8 592.312,886.617 592.312,780.464C592.312,674.311 665.959,588.129 756.671,588.129ZM734.756,755.2L657.99,755.2C645.931,755.2 636.141,766.637 636.141,780.723L636.141,780.877C636.141,794.963 645.931,806.4 657.99,806.4L734.756,806.4L734.756,896.077C734.756,910.163 744.547,921.6 756.605,921.6L756.737,921.6C768.795,921.6 778.586,910.163 778.586,896.077L778.586,806.4L855.352,806.4C867.411,806.4 877.201,794.963 877.201,780.877L877.201,780.723C877.201,766.637 867.411,755.2 855.352,755.2L778.586,755.2L778.586,665.523C778.586,651.437 768.795,640 756.737,640L756.605,640C744.547,640 734.756,651.437 734.756,665.523L734.756,755.2Z"/>
    </g>
</svg>
